# xmcd
#
# Track frame offsets:
#	150
#	20549
#	42019
#	60275
#	76109
#	92743
#	106304
#	120749
#	135572
#	156626
#	174079
#	188655
#	207135
#	219917
#	238615
#	250671
#
# Disc length: 3622 seconds
#
# Revision: 1
# Processed by: cddbd v1.5.1PL0 Copyright (c) Steve Scherf et al.
# Submitted via: CDex 1.50Beta5
#
DISCID=c30e2410
DTITLE=NSP - NSPベストセレクション 1973〜1986 Disc 2
DYEAR=2003
DGENRE=
TTITLE0=未来
TTITLE1=愛のロジック〜論理〜
TTITLE2=浮雲
TTITLE3=あなたこっちを振り向いて
TTITLE4=弥生つめたい風
TTITLE5=八十八夜
TTITLE6=そんな季節に口づけを
TTITLE7=ゆうやけ
TTITLE8=チケット握り締めて
TTITLE9=雨は似合わない
TTITLE10=面影橋
TTITLE11=Rain
TTITLE12=あせ
TTITLE13=避暑地にて
TTITLE14=赤い糸の伝説
TTITLE15=さようなら
EXTD=
EXTT0=
EXTT1=
EXTT2=
EXTT3=
EXTT4=
EXTT5=
EXTT6=
EXTT7=
EXTT8=
EXTT9=
EXTT10=
EXTT11=
EXTT12=
EXTT13=
EXTT14=
EXTT15=
PLAYORDER=
